<?xml version="1.0" encoding="UTF-8" standalone="no"?>
<!DOCTYPE svg PUBLIC "-//W3C//DTD SVG 1.1//EN" "http://www.w3.org/Graphics/SVG/1.1/DTD/svg11.dtd">
<svg width="100%" height="100%" viewBox="0 0 198 134" version="1.1" xmlns="http://www.w3.org/2000/svg" xmlns:xlink="http://www.w3.org/1999/xlink" xml:space="preserve" xmlns:serif="http://www.serif.com/" style="fill-rule:evenodd;clip-rule:evenodd;stroke-linejoin:round;stroke-miterlimit:2;">
    <g>
        <path d="M194.909,0.001L0,5.566L4.442,134.001L198,125.872L194.941,0.001L194.909,0.001Z" style="fill:none;"/>
        <path d="M98.55,79.809L98.86,88.637L98.36,88.654L14.353,91.588L14.043,82.76L14.543,82.743L98.551,79.809L98.55,79.809ZM99.644,111.123L99.953,119.952L15.447,122.902L15.137,114.075L99.644,111.123ZM97.974,63.282L98.313,72.98L97.813,72.997L13.806,75.93L13.466,66.233L13.966,66.216L97.974,63.282ZM99.097,95.466L99.406,104.295L14.9,107.245L14.59,98.417L15.09,98.4L99.097,95.466ZM185.181,43.761L185.485,52.461C185.503,52.994 184.453,53.541 184.019,53.555L162.868,54.295L70.595,57.516C51.43,58.186 32.265,58.856 13.1,59.524C13.014,59.527 12.965,59.507 12.94,59.472C12.889,59.45 12.856,59.399 12.857,59.344L12.553,50.645C12.535,50.11 13.585,49.565 14.019,49.549L35.169,48.811L127.444,45.588L184.938,43.581C185.062,43.576 185.176,43.624 185.181,43.761ZM184.599,27.226C184.699,30.126 184.801,33.026 184.903,35.924C184.92,36.424 183.836,36.998 183.432,37.014L162.281,37.751L70.008,40.974L12.513,42.981C12.435,42.984 12.389,42.966 12.37,42.933C12.319,42.915 12.287,42.881 12.286,42.824C12.184,39.925 12.082,37.025 11.982,34.126C11.964,33.627 13.048,33.051 13.452,33.038L34.604,32.299L126.876,29.077L184.371,27.069C184.491,27.064 184.594,27.091 184.599,27.226ZM184.09,11.625L184.362,19.454C184.384,20.054 183.686,20.584 183.122,20.604L161.971,21.342L69.698,24.564L12.203,26.572C12,26.579 11.68,26.506 11.67,26.242L11.397,18.412C11.387,18.115 11.647,17.805 11.969,17.581C12.183,17.403 12.424,17.271 12.638,17.263C19.688,17.017 26.738,16.771 33.789,16.523C64.546,15.451 95.304,14.376 126.062,13.302L183.557,11.294C183.759,11.288 184.08,11.36 184.09,11.624L184.09,11.625Z" style="fill:rgb(235,227,6);"/>
        <path d="M181.338,66.989L180.537,68.737L179.617,67.049L177.685,66.841L179.029,65.455L178.635,63.578L180.387,64.409L182.075,63.458L181.814,65.358L183.251,66.647L181.338,66.989ZM181.733,78.297L180.933,80.045L180.013,78.357L178.079,78.149L179.425,76.763L179.03,74.886L180.781,75.718L182.471,74.766L182.208,76.666L183.647,77.954L181.733,78.297ZM182.127,89.605L181.327,91.353L180.407,89.665L178.474,89.457L179.819,88.071L179.425,86.194L181.176,87.026L182.865,86.074L182.603,87.974L184.041,89.262L182.127,89.605ZM182.492,100.044L181.692,101.792L180.772,100.104L178.839,99.895L180.184,98.509L179.789,96.632L181.541,97.464L183.23,96.512L182.968,98.412L184.405,99.7L182.492,100.044ZM182.887,111.351L182.087,113.099L181.167,111.412L179.234,111.204L180.579,109.818L180.185,107.941L181.936,108.772L183.625,107.821L183.362,109.72L184.801,111.01L182.887,111.351ZM174.127,73.337L173.327,75.085L172.407,73.397L170.475,73.189L171.819,71.803L171.425,69.926L173.176,70.758L174.866,69.806L174.603,71.706L176.041,72.994L174.127,73.337ZM174.492,83.775L173.692,85.524L172.772,83.835L170.839,83.627L172.184,82.241L171.789,80.364L173.54,81.196L175.231,80.244L174.968,82.144L176.405,83.433L174.492,83.775ZM174.887,95.084L174.087,96.831L173.167,95.144L171.234,94.935L172.579,93.549L172.185,91.672L173.936,92.504L175.625,91.552L175.362,93.452L176.801,94.741L174.887,95.084ZM175.281,106.391L174.482,108.14L173.562,106.452L171.629,106.244L172.974,104.858L172.579,102.981L174.33,103.812L176.021,102.861L175.757,104.76L177.195,106.05L175.281,106.391ZM166.492,67.508L165.692,69.256L164.772,67.568L162.839,67.36L164.185,65.973L163.789,64.096L165.541,64.928L167.231,63.976L166.968,65.876L168.406,67.165L166.492,67.508ZM166.888,78.815L166.087,80.564L165.166,78.875L163.234,78.667L164.579,77.281L164.185,75.405L165.937,76.236L167.625,75.284L167.362,77.184L168.801,78.473L166.888,78.815ZM167.282,90.124L166.483,91.871L165.562,90.184L163.629,89.975L164.974,88.589L164.579,86.713L166.331,87.544L168.021,86.592L167.758,88.492L169.196,89.781L167.282,90.124ZM167.647,100.562L166.847,102.309L165.926,100.622L163.993,100.413L165.339,99.028L164.943,97.151L166.695,97.983L168.385,97.031L168.122,98.93L169.561,100.219L167.647,100.562ZM168.042,111.87L167.241,113.618L166.32,111.93L164.388,111.722L165.734,110.336L165.339,108.459L167.091,109.291L168.779,108.339L168.517,110.239L169.955,111.527L168.042,111.87ZM159.282,73.855L158.483,75.604L157.563,73.915L155.629,73.707L156.974,72.322L156.579,70.445L158.331,71.276L160.021,70.324L159.757,72.224L161.196,73.513L159.282,73.855ZM159.647,84.294L158.847,86.042L157.927,84.354L155.993,84.146L157.338,82.76L156.943,80.883L158.695,81.714L160.385,80.763L160.122,82.662L161.561,83.951L159.647,84.294ZM160.042,95.602L159.241,97.35L158.321,95.662L156.389,95.453L157.734,94.068L157.339,92.191L159.091,93.023L160.779,92.071L160.517,93.97L161.955,95.259L160.042,95.602ZM160.437,106.91L159.637,108.658L158.717,106.97L156.783,106.762L158.128,105.376L157.734,103.5L159.485,104.331L161.175,103.379L160.911,105.279L162.351,106.568L160.437,106.91ZM151.647,68.026L150.847,69.774L149.927,68.086L147.993,67.878L149.338,66.492L148.944,64.615L150.695,65.447L152.385,64.495L152.122,66.395L153.561,67.683L151.647,68.026ZM152.042,79.334L151.241,81.082L150.321,79.394L148.389,79.186L149.734,77.8L149.339,75.923L151.091,76.754L152.779,75.803L152.517,77.703L153.955,78.991L152.042,79.334ZM152.437,90.642L151.637,92.39L150.717,90.702L148.783,90.493L150.128,89.108L149.734,87.231L151.485,88.063L153.175,87.111L152.911,89.01L154.351,90.299L152.437,90.642ZM152.801,101.08L152.001,102.828L151.081,101.14L149.148,100.932L150.492,99.546L150.099,97.669L151.85,98.501L153.539,97.549L153.276,99.449L154.715,100.738L152.801,101.08ZM153.196,112.388L152.396,114.136L151.476,112.448L149.543,112.24L150.888,110.854L150.493,108.977L152.245,109.809L153.934,108.857L153.671,110.758L155.109,112.046L153.196,112.388ZM144.437,74.374L143.637,76.122L142.716,74.434L140.783,74.226L142.128,72.84L141.734,70.963L143.485,71.794L145.175,70.843L144.912,72.743L146.351,74.031L144.437,74.374ZM144.801,84.812L144.001,86.56L143.081,84.872L141.148,84.664L142.493,83.278L142.099,81.401L143.85,82.233L145.539,81.281L145.276,83.181L146.715,84.469L144.801,84.812ZM145.196,96.12L144.396,97.868L143.476,96.18L141.543,95.972L142.888,94.586L142.493,92.709L144.245,93.541L145.934,92.589L145.672,94.489L147.109,95.778L145.196,96.12ZM145.591,107.428L144.791,109.177L143.87,107.488L141.938,107.28L143.282,105.894L142.889,104.017L144.64,104.849L146.329,103.897L146.067,105.798L147.505,107.086L145.591,107.428ZM136.801,68.544L136.001,70.293L135.081,68.604L133.148,68.396L134.493,67.01L134.099,65.134L135.85,65.965L137.539,65.013L137.276,66.913L138.715,68.202L136.801,68.544ZM137.196,79.852L136.396,81.6L135.476,79.912L133.543,79.704L134.888,78.318L134.493,76.441L136.245,77.273L137.934,76.321L137.672,78.221L139.109,79.51L137.196,79.852ZM137.591,91.16L136.791,92.908L135.871,91.221L133.938,91.012L135.283,89.626L134.889,87.749L136.64,88.581L138.329,87.629L138.067,89.529L139.505,90.818L137.591,91.16ZM137.955,101.599L137.155,103.346L136.235,101.659L134.302,101.45L135.648,100.064L135.253,98.187L137.004,99.019L138.693,98.067L138.431,99.967L139.869,101.256L137.955,101.599ZM138.351,112.907L137.55,114.655L136.63,112.967L134.697,112.759L136.042,111.373L135.648,109.496L137.4,110.327L139.088,109.376L138.826,111.276L140.264,112.564L138.351,112.907ZM129.591,74.892L128.791,76.64L127.871,74.952L125.938,74.744L127.283,73.358L126.889,71.481L128.64,72.313L130.329,71.361L130.067,73.261L131.505,74.55L129.591,74.892ZM129.955,85.33L129.155,87.079L128.235,85.39L126.302,85.182L127.648,83.797L127.253,81.92L129.004,82.751L130.693,81.8L130.431,83.699L131.869,84.988L129.955,85.33ZM130.351,96.639L129.55,98.386L128.63,96.699L126.697,96.49L128.042,95.104L127.648,93.228L129.4,94.059L131.089,93.108L130.826,95.007L132.264,96.296L130.351,96.639ZM130.745,107.947L129.945,109.695L129.025,108.007L127.092,107.799L128.438,106.413L128.043,104.536L129.794,105.367L131.484,104.416L131.221,106.316L132.659,107.604L130.745,107.947ZM121.956,69.063L121.155,70.811L120.235,69.123L118.302,68.915L119.648,67.529L119.253,65.652L121.004,66.483L122.693,65.531L122.431,67.431L123.87,68.72L121.956,69.063ZM122.351,80.37L121.55,82.119L120.63,80.43L118.697,80.222L120.043,78.837L119.648,76.96L121.4,77.791L123.089,76.84L122.826,78.739L124.265,80.028L122.351,80.37ZM122.746,91.679L121.945,93.426L121.025,91.739L119.092,91.531L120.438,90.145L120.043,88.268L121.794,89.099L123.484,88.148L123.221,90.048L124.659,91.336L122.746,91.679ZM123.11,102.117L122.31,103.865L121.39,102.177L119.456,101.968L120.802,100.583L120.407,98.706L122.158,99.538L123.848,98.586L123.585,100.486L125.025,101.774L123.11,102.117ZM123.505,113.426L122.704,115.174L121.784,113.485L119.852,113.277L121.197,111.891L120.802,110.014L122.554,110.845L124.243,109.894L123.981,111.794L125.419,113.083L123.505,113.426ZM114.746,75.41L113.945,77.159L113.025,75.47L111.093,75.262L112.438,73.877L112.043,72L113.795,72.831L115.484,71.88L115.221,73.78L116.659,75.068L114.746,75.41ZM115.11,85.849L114.311,87.597L113.391,85.909L111.457,85.701L112.802,84.315L112.407,82.438L114.159,83.269L115.849,82.318L115.585,84.218L117.025,85.507L115.11,85.849ZM115.505,97.157L114.705,98.905L113.785,97.218L111.852,97.009L113.196,95.623L112.802,93.746L114.554,94.578L116.243,93.626L115.981,95.526L117.419,96.814L115.505,97.157ZM115.9,108.466L115.1,110.214L114.18,108.525L112.247,108.317L113.592,106.931L113.197,105.054L114.949,105.885L116.638,104.934L116.375,106.835L117.814,108.123L115.9,108.466ZM107.11,69.581L106.311,71.329L105.39,69.641L103.457,69.433L104.802,68.047L104.408,66.17L106.159,67.002L107.848,66.05L107.585,67.95L109.025,69.239L107.11,69.581ZM107.505,80.889L106.705,82.637L105.785,80.949L103.852,80.741L105.196,79.355L104.803,77.478L106.554,78.309L108.243,77.358L107.981,79.258L109.419,80.547L107.505,80.889ZM107.9,92.197L107.1,93.945L106.18,92.258L104.247,92.049L105.592,90.663L105.197,88.786L106.949,89.618L108.638,88.666L108.375,90.566L109.814,91.854L107.9,92.197ZM108.265,102.635L107.465,104.384L106.544,102.696L104.611,102.487L105.956,101.101L105.563,99.224L107.314,100.056L109.002,99.104L108.739,101.004L110.179,102.293L108.265,102.635ZM108.659,113.943L107.859,115.692L106.94,114.004L105.006,113.796L106.351,112.41L105.957,110.533L107.708,111.364L109.398,110.413L109.135,112.312L110.573,113.601L108.659,113.943ZM184.903,60.747L101.398,63.663L101.701,72.361L101.975,80.19L102.248,88.018L102.522,95.847L103.068,111.505L103.342,119.333L186.848,116.417L184.903,60.747Z" style="fill:rgb(50,48,1);"/>
    </g>
</svg>
